<svg width="144" height="144" viewBox="0 0 144 144" fill="none" xmlns="http://www.w3.org/2000/svg">
<rect width="144" height="144" rx="26" fill="url(#paint0_linear_6_129)"/>
<path d="M117.989 43.9922H87.4681V29.0175C87.4681 27.9024 86.5683 27 85.4566 27H68.7293C67.6177 27 66.7179 27.9024 66.7179 29.0175V43.9922H25.9449C24.8706 43.9922 24 44.8654 24 45.943V62.8559C24 63.9334 24.8706 64.8067 25.9449 64.8067H66.7158V79.9961C66.7158 102.876 79.7984 116 102.612 116H117.989C119.1 116 120 115.098 120 113.983V97.205C120 96.09 119.1 95.1875 117.989 95.1875H102.612C91.2894 95.1875 87.466 91.3548 87.466 79.9982V64.8088H117.986C119.098 64.8088 119.998 63.9063 119.998 62.7913V46.0138C119.998 44.8988 119.098 43.9963 117.986 43.9963L117.989 43.9922Z" fill="#FDFDFD"/>
<defs>
<linearGradient id="paint0_linear_6_129" x1="-35.5" y1="72" x2="183" y2="72" gradientUnits="userSpaceOnUse">
<stop stop-color="#3090F0"/>
<stop offset="0.485577" stop-color="#00D8F0"/>
<stop offset="1" stop-color="#D8F0A0"/>
</linearGradient>
</defs>
</svg>
