<?xml version="1.0" encoding="UTF-8"?>
<svg id="Calque_1" data-name="Calque 1" xmlns="http://www.w3.org/2000/svg" viewBox="0 0 2700 620">
  <defs>
    <style>
      .cls-1 {
        fill: #fff;
      }
    </style>
  </defs>
  <path class="cls-1" d="M730.5,198.46c-27.75,0-53.91,5.98-76.63,17.43V50.45c0-5.35-4.33-9.68-9.68-9.68h-80.5c-5.35,0-9.68,4.33-9.68,9.68v489.2c0,5.35,4.33,9.68,9.68,9.68h80.5c5.35,0,9.68-4.33,9.68-9.68v-175.42c0-15.46,4.75-65.9,65.9-65.9,15.46,0,65.9,4.75,65.9,65.9v175.42c0,5.35,4.33,9.68,9.68,9.68h80.5c5.35,0,9.68-4.33,9.68-9.68v-186.15c0-107.1-77.86-155.03-155.03-155.03Z"/>
  <path class="cls-1" d="M1210.62,203.83h-92.27c-109.78,0-172.74,62.96-172.74,172.75v163.07c0,5.35,4.33,9.68,9.68,9.68h80.49c5.35,0,9.68-4.33,9.68-9.68v-163.07c0-54.49,18.39-72.88,72.89-72.88h92.26c5.35,0,9.68-4.33,9.68-9.68v-80.5c0-5.35-4.33-9.68-9.68-9.68Z"/>
  <path class="cls-1" d="M1572.37,449.47h-101.8s103.5-110.03,103.5-110.03c1.8-1.91,2.75-4.48,2.62-7.1-.01-.26-.04-.52-.07-.77-.34-41.13-16.77-75.59-47.56-99.74-27.42-21.51-64.84-33.35-105.35-33.35-43.89,0-86.86,16.16-117.9,44.34-35.88,32.58-54.85,78.84-54.85,133.77,0,46.14,15.87,88.65,44.69,119.7,32.21,34.7,78.35,53.04,133.42,53.04h143.3c5.35,0,9.68-4.33,9.68-9.68v-80.49c0-5.35-4.33-9.68-9.68-9.68ZM1367.56,424.74c-10.85-12.63-16.73-29.4-16.73-48.16,0-25.43,7.85-46.19,22.69-60.01,12.63-11.76,29.82-18.24,48.42-18.24,20.66,0,36.69,6.98,45.9,19.8l-100.28,106.61Z"/>
  <path class="cls-1" d="M2379.28,40.76h-80.5c-5.35,0-9.68,4.33-9.68,9.68v172.8c-26.17-16.08-57.13-24.79-88.98-24.79-43.8,0-84.67,15.9-115.08,44.77-34.21,32.48-52.29,78.59-52.29,133.34,0,46.5,15.82,89.91,44.55,122.23,32.5,36.56,78.68,55.88,133.56,55.88s101.07-19.32,133.56-55.88c28.73-32.32,44.55-75.73,44.55-122.23V50.45c0-5.35-4.33-9.68-9.68-9.68ZM2210.85,454.82c-37.69,0-78.25-24.49-78.25-78.25s40.56-78.25,78.25-78.25,78.25,24.49,78.25,78.25-40.56,78.25-78.25,78.25Z"/>
  <path class="cls-1" d="M1974.91,195.56h-85.79c-3.89,0-7.04,3.15-7.04,7.04v11.43c-23.23-10.27-49.55-15.57-78.25-15.57-54.88,0-101.06,19.33-133.56,55.89-28.73,32.32-44.55,75.73-44.55,122.23,0,54.76,18.08,100.87,52.29,133.35,30.41,28.87,71.28,44.77,115.08,44.77,31.86,0,62.82-8.7,88.98-24.78v15.1c0,5.35,4.33,9.68,9.68,9.68h80.5c5.35,0,9.68-4.33,9.68-9.68V202.6c0-3.89-3.15-7.04-7.04-7.04ZM1803.83,454.83c-53.76,0-78.25-40.56-78.25-78.25s24.49-78.25,78.25-78.25c37.69,0,78.25,24.49,78.25,78.25s-40.56,78.25-78.25,78.25Z"/>
  <rect class="cls-1" x="2461.24" y="203.83" width="205.57" height="99.87" rx="9.36" ry="9.36"/>
  <path class="cls-1" d="M485.51,203.83h-146.88v-71.85c0-5.35-4.33-9.68-9.68-9.68h-80.5c-5.35,0-9.68,4.33-9.68,9.68v71.85H42.55c-5.17,0-9.36,4.19-9.36,9.36v81.15c0,5.17,4.19,9.36,9.36,9.36h196.21v72.88c0,109.78,62.96,172.75,172.75,172.75h74c5.35,0,9.68-4.33,9.68-9.68v-80.5c0-5.35-4.33-9.68-9.68-9.68h-74c-54.49,0-72.89-18.39-72.89-72.88v-72.88h146.88c5.35,0,9.68-4.33,9.68-9.68v-80.5c0-5.35-4.33-9.68-9.68-9.68Z"/>
</svg>