<?xml version="1.0" encoding="UTF-8"?>
<svg id="Calque_1" data-name="Calque 1" xmlns="http://www.w3.org/2000/svg" viewBox="0 0 2700 715">
  <defs>
    <style>
      .cls-1 {
        fill: #fff;
      }
    </style>
  </defs>
  <path class="cls-1" d="M730.5,198.46c-27.75,0-53.91,5.98-76.63,17.43V50.45c0-5.35-4.33-9.68-9.68-9.68h-80.5c-5.35,0-9.68,4.33-9.68,9.68v489.2c0,5.35,4.33,9.68,9.68,9.68h80.5c5.35,0,9.68-4.33,9.68-9.68v-175.42c0-15.46,4.75-65.9,65.9-65.9,15.46,0,65.9,4.75,65.9,65.9v175.42c0,5.35,4.33,9.68,9.68,9.68h80.5c5.35,0,9.68-4.33,9.68-9.68v-186.15c0-107.1-77.86-155.03-155.03-155.03Z"/>
  <path class="cls-1" d="M1210.62,203.83h-92.27c-109.78,0-172.74,62.96-172.74,172.75v163.07c0,5.35,4.33,9.68,9.68,9.68h80.49c5.35,0,9.68-4.33,9.68-9.68v-163.07c0-54.49,18.39-72.88,72.89-72.88h92.26c5.35,0,9.68-4.33,9.68-9.68v-80.5c0-5.35-4.33-9.68-9.68-9.68Z"/>
  <path class="cls-1" d="M1572.37,449.47h-101.8s103.5-110.03,103.5-110.03c1.8-1.91,2.75-4.48,2.62-7.1-.01-.26-.04-.52-.07-.77-.34-41.13-16.77-75.59-47.56-99.74-27.42-21.51-64.84-33.35-105.35-33.35-43.89,0-86.86,16.16-117.9,44.34-35.88,32.58-54.85,78.84-54.85,133.77,0,46.14,15.87,88.65,44.69,119.7,32.21,34.7,78.35,53.04,133.42,53.04h143.3c5.35,0,9.68-4.33,9.68-9.68v-80.49c0-5.35-4.33-9.68-9.68-9.68ZM1367.56,424.74c-10.85-12.63-16.73-29.4-16.73-48.16,0-25.43,7.85-46.19,22.69-60.01,12.63-11.76,29.82-18.24,48.42-18.24,20.66,0,36.69,6.98,45.9,19.8l-100.28,106.61Z"/>
  <path class="cls-1" d="M2379.28,40.76h-80.5c-5.35,0-9.68,4.33-9.68,9.68v172.8c-26.17-16.08-57.13-24.79-88.98-24.79-43.8,0-84.67,15.9-115.08,44.77-34.21,32.48-52.29,78.59-52.29,133.34,0,46.5,15.82,89.91,44.55,122.23,32.5,36.56,78.68,55.88,133.56,55.88s101.07-19.32,133.56-55.88c28.73-32.32,44.55-75.73,44.55-122.23V50.45c0-5.35-4.33-9.68-9.68-9.68ZM2210.85,454.82c-37.69,0-78.25-24.49-78.25-78.25s40.56-78.25,78.25-78.25,78.25,24.49,78.25,78.25-40.56,78.25-78.25,78.25Z"/>
  <path class="cls-1" d="M2020.79,618.81c-2.97-1.83-6.37-2.75-10.21-2.75-2.99,0-5.7.6-8.1,1.8-1.23.62-2.38,1.39-3.46,2.3v-19.08h-12.56v55.29h10.87v-4.67c.48.6,1,1.18,1.59,1.72,1.45,1.31,3.18,2.32,5.2,3.03,2.02.72,4.25,1.08,6.68,1.08,2.82,0,5.4-.49,7.76-1.48,2.35-.98,4.41-2.39,6.16-4.22,1.75-1.83,3.12-4.02,4.09-6.57.97-2.55,1.46-5.37,1.46-8.47,0-3.92-.84-7.44-2.51-10.56-1.68-3.12-4-5.6-6.97-7.43ZM2016.7,642.06c-.83,1.48-1.96,2.63-3.38,3.44-1.42.81-3.04,1.21-4.86,1.21s-3.4-.4-4.84-1.21c-1.43-.81-2.56-1.95-3.38-3.44-.82-1.48-1.23-3.24-1.23-5.26s.41-3.81,1.23-5.28c.82-1.47,1.94-2.61,3.36-3.42,1.42-.81,3.04-1.21,4.86-1.21s3.44.4,4.88,1.21c1.43.81,2.56,1.95,3.38,3.42.82,1.47,1.23,3.23,1.23,5.28s-.42,3.78-1.25,5.26Z"/>
  <path class="cls-1" d="M2054.73,644.06l-8.68-26.84h-13.67l15.21,39.32-.58,1.84c-.44,1.36-1.15,2.33-2.13,2.92-.99.59-2.18.88-3.59.88-.87,0-1.8-.13-2.8-.38-1-.26-1.92-.6-2.76-1.04l-2.65,10.52c1.43.79,3.01,1.37,4.72,1.73s3.47.54,5.26.54c2.36,0,4.59-.42,6.72-1.25,2.12-.83,4.06-2.21,5.82-4.15,1.75-1.93,3.3-4.56,4.63-7.89l16.24-43.04h-13.32l-8.41,26.84Z"/>
  <polygon class="cls-1" points="2100.69 656.38 2113.44 656.38 2113.44 636.53 2133.71 636.53 2133.71 625.36 2113.44 625.36 2113.44 614.26 2136.09 614.26 2136.09 602.63 2100.69 602.63 2100.69 656.38"/>
  <rect class="cls-1" x="2145.31" y="617.22" width="12.59" height="39.16"/>
  <path class="cls-1" d="M2156.9,599.29c-1.48-1.25-3.25-1.88-5.3-1.88s-3.78.63-5.28,1.88c-1.5,1.25-2.25,2.96-2.25,5.11s.75,3.86,2.25,5.13c1.5,1.27,3.26,1.9,5.28,1.9s3.81-.63,5.3-1.9c1.48-1.27,2.23-2.98,2.23-5.13s-.74-3.85-2.23-5.11Z"/>
  <rect class="cls-1" x="2168.38" y="601.09" width="12.59" height="55.29"/>
  <rect class="cls-1" x="2191.46" y="617.22" width="12.59" height="39.16"/>
  <path class="cls-1" d="M2203.05,599.29c-1.48-1.25-3.25-1.88-5.3-1.88s-3.78.63-5.28,1.88c-1.5,1.25-2.25,2.96-2.25,5.11s.75,3.86,2.25,5.13c1.5,1.27,3.26,1.9,5.28,1.9s3.81-.63,5.3-1.9c1.48-1.27,2.23-2.98,2.23-5.13s-.74-3.85-2.23-5.11Z"/>
  <path class="cls-1" d="M2243.14,621.54c-.95-1.26-2.16-2.34-3.63-3.22-2.5-1.5-5.57-2.25-9.23-2.25-2.84,0-5.43.48-7.76,1.44-2.33.96-4.33,2.33-6.01,4.11-1.68,1.78-2.96,3.88-3.86,6.32-.9,2.43-1.34,5.09-1.34,7.99,0,3.89.79,7.33,2.38,10.33,1.59,2.99,3.8,5.34,6.64,7.03,2.84,1.69,6.16,2.53,9.95,2.53s6.74-.75,9.23-2.27c1.47-.89,2.68-1.97,3.63-3.24v3.01c0,3.07-1.03,5.45-3.09,7.12-2.06,1.68-5.08,2.52-9.04,2.52-2.05,0-4.03-.21-5.95-.63-1.92-.42-3.78-1.07-5.57-1.94l-2.61,9.94c2.12,1.18,4.45,2.03,6.99,2.55,2.53.52,5.21.79,8.02.79,7.35,0,12.95-1.95,16.82-5.84,3.87-3.89,5.8-9.43,5.8-16.63v-34.06h-11.36v4.39ZM2240.85,640.83c-.78,1.41-1.87,2.5-3.26,3.26-1.4.77-2.99,1.15-4.78,1.15s-3.42-.38-4.8-1.15c-1.38-.77-2.47-1.86-3.26-3.26-.79-1.41-1.19-3.05-1.19-4.91s.4-3.47,1.19-4.88c.79-1.41,1.88-2.5,3.26-3.28,1.38-.78,2.98-1.17,4.8-1.17s3.39.39,4.78,1.17c1.39.78,2.48,1.88,3.26,3.28.78,1.41,1.17,3.03,1.17,4.88s-.39,3.51-1.17,4.91Z"/>
  <path class="cls-1" d="M2288.56,615.99c-2.28,0-4.39.46-6.33,1.38-1.95.92-3.51,2.39-4.68,4.42v-4.57h-12.59v39.16h12.59v-19.93c0-2.64.77-4.64,2.32-6.01,1.55-1.37,3.51-2.05,5.89-2.05.97,0,1.95.1,2.92.29.97.19,1.89.44,2.76.75l1.5-12.94c-.67-.13-1.34-.24-2.03-.35-.69-.1-1.47-.15-2.34-.15Z"/>
  <path class="cls-1" d="M2327.53,621.76c-1-1.29-2.25-2.4-3.76-3.33-2.56-1.57-5.66-2.36-9.29-2.36-2.76,0-5.32.49-7.68,1.48-2.36.99-4.4,2.39-6.14,4.2-1.74,1.82-3.1,4-4.07,6.55-.97,2.55-1.46,5.38-1.46,8.5,0,4.15.84,7.78,2.53,10.89,1.69,3.11,3.99,5.53,6.91,7.26,2.92,1.73,6.22,2.59,9.91,2.59s6.73-.79,9.29-2.38c1.51-.94,2.76-2.06,3.76-3.35v4.58h10.83v-39.16h-10.83v4.54ZM2324.65,642.06c-.82,1.48-1.93,2.63-3.32,3.44-1.4.81-2.96,1.21-4.7,1.21s-3.3-.4-4.68-1.21c-1.38-.81-2.48-1.95-3.3-3.44-.82-1.48-1.23-3.24-1.23-5.26s.41-3.81,1.23-5.28c.82-1.47,1.92-2.61,3.3-3.42,1.38-.81,2.94-1.21,4.68-1.21s3.31.4,4.7,1.21c1.4.81,2.5,1.95,3.32,3.42.82,1.47,1.23,3.23,1.23,5.28s-.41,3.78-1.23,5.26Z"/>
  <path class="cls-1" d="M2381.98,618.24c-2.38-1.45-5.41-2.17-9.1-2.17-2.2,0-4.3.42-6.3,1.27-2,.84-3.72,2.19-5.18,4.03v-4.15h-12.59v39.16h12.59v-20.93c0-1.56.32-2.95.96-4.17.64-1.22,1.53-2.16,2.67-2.82,1.14-.66,2.48-1,4.01-1,2.41,0,4.23.68,5.47,2.03,1.24,1.36,1.86,3.21,1.86,5.57v21.31h12.59v-25.27c0-2.56-.57-4.98-1.71-7.28-1.14-2.29-2.9-4.16-5.28-5.61Z"/>
  <path class="cls-1" d="M1659.76,618.95c-2.91-1.7-6.21-2.55-9.91-2.55-2.97,0-5.57.51-7.82,1.52-2.25,1.01-4.09,2.37-5.54,4.07v-4.45h-10.77v54.8h12.44v-19.06c1.52,1.34,3.24,2.38,5.16,3.12,1.92.74,4.01,1.1,6.3,1.1,2.87,0,5.49-.52,7.86-1.56,2.37-1.04,4.43-2.49,6.18-4.36,1.75-1.87,3.1-4.05,4.05-6.55.95-2.5,1.43-5.19,1.43-8.09,0-4.11-.84-7.71-2.51-10.81-1.67-3.09-3.96-5.49-6.87-7.19ZM1655.71,642.16c-.81,1.47-1.93,2.61-3.35,3.41-1.42.8-3.03,1.2-4.83,1.2s-3.41-.4-4.81-1.2c-1.41-.8-2.52-1.93-3.33-3.41s-1.22-3.21-1.22-5.21.41-3.77,1.22-5.23c.81-1.46,1.93-2.59,3.35-3.39,1.42-.8,3.02-1.2,4.79-1.2s3.41.4,4.81,1.2c1.41.8,2.52,1.93,3.35,3.39.82,1.46,1.24,3.2,1.24,5.23s-.41,3.74-1.22,5.21Z"/>
  <path class="cls-1" d="M1706.55,619.2c-3.25-1.86-6.99-2.8-11.23-2.8-3.17,0-6.08.55-8.71,1.66-2.64,1.1-4.92,2.61-6.85,4.53-1.93,1.92-3.42,4.11-4.47,6.58-1.05,2.47-1.58,5.07-1.58,7.78,0,3.73.92,7.15,2.76,10.27,1.84,3.12,4.38,5.61,7.63,7.48,3.25,1.86,6.99,2.8,11.23,2.8,3.17,0,6.08-.56,8.71-1.67,2.64-1.12,4.92-2.63,6.85-4.53,1.93-1.9,3.41-4.09,4.45-6.56,1.04-2.47,1.56-5.07,1.56-7.78,0-3.73-.91-7.15-2.74-10.27-1.83-3.12-4.36-5.61-7.61-7.48ZM1703.47,642.16c-.81,1.47-1.93,2.61-3.35,3.41-1.42.8-3.02,1.2-4.79,1.2s-3.37-.4-4.79-1.2c-1.42-.8-2.54-1.93-3.37-3.41-.82-1.47-1.24-3.21-1.24-5.21s.41-3.77,1.22-5.23c.81-1.46,1.93-2.59,3.35-3.39,1.42-.8,3.03-1.2,4.83-1.2s3.41.4,4.83,1.2c1.42.8,2.53,1.93,3.33,3.39.8,1.46,1.2,3.2,1.2,5.23s-.41,3.74-1.22,5.21Z"/>
  <polygon class="cls-1" points="1763.29 642.01 1756.32 617.54 1744.83 617.54 1737.6 642.01 1731.32 617.54 1719.26 617.54 1730.86 656.35 1743.27 656.35 1750.35 632.8 1757.08 656.35 1769.49 656.35 1781.09 617.54 1769.49 617.54 1763.29 642.01"/>
  <path class="cls-1" d="M1820.31,623.23c-1.74-2.14-3.94-3.82-6.6-5.02-2.66-1.2-5.7-1.81-9.09-1.81-3.1,0-5.93.5-8.5,1.5-2.58,1-4.81,2.42-6.7,4.24-1.89,1.83-3.36,4-4.41,6.51-1.05,2.51-1.58,5.26-1.58,8.26,0,4.14.9,7.74,2.7,10.83,1.8,3.08,4.31,5.48,7.53,7.19,3.22,1.71,6.96,2.57,11.23,2.57,1.93,0,3.95-.21,6.07-.63,2.12-.42,4.12-.99,6.01-1.71,1.89-.72,3.43-1.54,4.62-2.45l-3.92-8.45c-1.88,1.24-3.84,2.16-5.9,2.76-2.05.6-4.22.89-6.51.89-2.05,0-3.86-.32-5.4-.97-1.55-.65-2.77-1.54-3.65-2.68-.89-1.14-1.34-2.47-1.37-4h29.15c.61-3.4.58-6.55-.08-9.46-.66-2.9-1.86-5.43-3.6-7.57ZM1795.59,631.85c.2-1.95,1.1-3.51,2.68-4.68,1.59-1.17,3.58-1.75,5.99-1.75s4.27.58,5.67,1.75c1.39,1.17,2.12,2.73,2.17,4.68h-16.52Z"/>
  <path class="cls-1" d="M1855.11,616.32c-2.26,0-4.35.46-6.28,1.37-1.93.91-3.48,2.37-4.64,4.38v-4.53h-12.48v38.81h12.48v-19.75c0-2.61.77-4.6,2.3-5.96,1.53-1.36,3.48-2.04,5.84-2.04.96,0,1.93.1,2.89.29.96.19,1.88.44,2.74.74l1.48-12.82c-.66-.13-1.33-.24-2.02-.34-.69-.1-1.46-.15-2.32-.15Z"/>
  <path class="cls-1" d="M1898.51,623.23c-1.74-2.14-3.94-3.82-6.6-5.02-2.66-1.2-5.7-1.81-9.09-1.81-3.1,0-5.93.5-8.5,1.5-2.58,1-4.81,2.42-6.7,4.24-1.89,1.83-3.36,4-4.41,6.51-1.05,2.51-1.58,5.26-1.58,8.26,0,4.14.9,7.74,2.7,10.83,1.8,3.08,4.31,5.48,7.53,7.19,3.22,1.71,6.96,2.57,11.23,2.57,1.93,0,3.95-.21,6.07-.63,2.12-.42,4.12-.99,6.01-1.71,1.89-.72,3.43-1.54,4.62-2.45l-3.92-8.45c-1.88,1.24-3.84,2.16-5.9,2.76-2.05.6-4.22.89-6.51.89-2.05,0-3.86-.32-5.4-.97-1.55-.65-2.77-1.54-3.65-2.68-.89-1.14-1.35-2.47-1.37-4h29.15c.61-3.4.58-6.55-.08-9.46-.66-2.9-1.86-5.43-3.6-7.57ZM1873.79,631.85c.2-1.95,1.1-3.51,2.68-4.68,1.58-1.17,3.58-1.75,5.99-1.75s4.27.58,5.67,1.75c1.39,1.17,2.12,2.73,2.17,4.68h-16.52Z"/>
  <path class="cls-1" d="M1938.14,620.36c-1.05-.88-2.18-1.62-3.39-2.21-2.39-1.17-5.06-1.75-8.03-1.75s-5.45.52-7.84,1.56c-2.39,1.04-4.45,2.49-6.18,4.36-1.74,1.86-3.09,4.04-4.05,6.53-.96,2.49-1.45,5.19-1.45,8.11,0,4.11.84,7.71,2.51,10.79,1.67,3.08,3.97,5.48,6.89,7.19,2.92,1.71,6.22,2.57,9.89,2.57s6.86-.78,9.48-2.34c1.56-.93,2.85-2.04,3.88-3.3v4.5h10.77v-54.8h-12.48v18.8ZM1936.96,642.16c-.81,1.47-1.93,2.61-3.35,3.41-1.42.8-3.02,1.2-4.79,1.2s-3.37-.4-4.79-1.2c-1.42-.8-2.54-1.93-3.37-3.41-.82-1.47-1.24-3.21-1.24-5.21s.41-3.77,1.22-5.23c.81-1.46,1.93-2.59,3.35-3.39,1.42-.8,3.03-1.2,4.83-1.2s3.41.4,4.83,1.2c1.42.8,2.53,1.93,3.33,3.39.8,1.46,1.2,3.2,1.2,5.23s-.41,3.74-1.22,5.21Z"/>
  <path class="cls-1" d="M1974.91,195.56h-85.79c-3.89,0-7.04,3.15-7.04,7.04v11.43c-23.23-10.27-49.55-15.57-78.25-15.57-54.88,0-101.06,19.33-133.56,55.89-28.73,32.32-44.55,75.73-44.55,122.23,0,54.76,18.08,100.87,52.29,133.35,30.41,28.87,71.28,44.77,115.08,44.77,31.86,0,62.82-8.7,88.98-24.78v15.1c0,5.35,4.33,9.68,9.68,9.68h80.5c5.35,0,9.68-4.33,9.68-9.68V202.6c0-3.89-3.15-7.04-7.04-7.04ZM1803.83,454.83c-53.76,0-78.25-40.56-78.25-78.25s24.49-78.25,78.25-78.25c37.69,0,78.25,24.49,78.25,78.25s-40.56,78.25-78.25,78.25Z"/>
  <rect class="cls-1" x="2461.24" y="203.83" width="205.57" height="99.87" rx="9.36" ry="9.36"/>
  <path class="cls-1" d="M485.51,203.83h-146.88v-71.85c0-5.35-4.33-9.68-9.68-9.68h-80.5c-5.35,0-9.68,4.33-9.68,9.68v71.85H42.55c-5.17,0-9.36,4.19-9.36,9.36v81.15c0,5.17,4.19,9.36,9.36,9.36h196.21v72.88c0,109.78,62.96,172.75,172.75,172.75h74c5.35,0,9.68-4.33,9.68-9.68v-80.5c0-5.35-4.33-9.68-9.68-9.68h-74c-54.49,0-72.89-18.39-72.89-72.88v-72.88h146.88c5.35,0,9.68-4.33,9.68-9.68v-80.5c0-5.35-4.33-9.68-9.68-9.68Z"/>
</svg>